<svg width="4525" height="877" viewBox="0 0 4525 877" fill="none" xmlns="http://www.w3.org/2000/svg">
<g filter="url(#filter0_i_59_2)">
<path d="M386.1 429.8C386.1 407.6 384 390.2 379.8 377.6C375.6 364.4 368.1 354.5 357.3 347.9C347.1 341.3 335.7 337.1 323.1 335.3C311.1 332.9 294.3 331.7 272.7 331.7V529.7C289.5 529.7 304.2 528.2 316.8 525.2C330 522.2 342 517.1 352.8 509.9C363.6 502.7 371.7 492.5 377.1 479.3C383.1 465.5 386.1 449 386.1 429.8ZM272.7 698C272.7 746.6 263.7 781.4 245.7 802.4C227.7 822.8 200.1 833 162.9 833C125.7 833 98.4 823.7 81 805.1C63.6 785.9 54.9 752.3 54.9 704.3V324.5C54.9 287.9 64.8 260.9 84.6 243.5C104.4 225.5 130.5 216.5 162.9 216.5H323.1C362.1 216.5 398.1 221.9 431.1 232.7C464.1 242.9 492.6 257.6 516.6 276.8C541.2 295.4 560.1 319.1 573.3 347.9C587.1 376.1 594 407.6 594 442.4C594 485 581.7 522.2 557.1 554C532.5 585.2 500.1 608.6 459.9 624.2C419.7 639.8 374.4 647.6 324 647.6H272.7V698ZM865.076 736.7C865.076 772.7 857.576 797.9 842.576 812.3C827.576 826.1 800.876 833 762.476 833C727.076 833 703.076 824.9 690.476 808.7C677.876 791.9 671.576 764.6 671.576 726.8V505.4C671.576 485 675.176 467.3 682.376 452.3C689.576 436.7 700.076 424.7 713.876 416.3C727.676 407.9 743.876 403.7 762.476 403.7C808.076 403.7 838.076 416.9 852.476 443.3C887.276 416.9 920.876 403.7 953.276 403.7C1016.28 403.7 1047.78 433.7 1047.78 493.7C1047.78 517.7 1040.88 537.2 1027.08 552.2C1013.28 567.2 995.276 574.7 973.076 574.7C959.876 574.7 949.076 572 940.676 566.6C932.876 561.2 925.376 555.8 918.176 550.4C911.576 545 903.776 542.3 894.776 542.3C881.576 542.3 871.676 546.8 865.076 555.8V736.7ZM1093.39 278.6C1093.39 258.8 1101.79 242.6 1118.59 230C1135.99 216.8 1160.29 210.2 1191.49 210.2C1256.89 210.2 1289.59 233 1289.59 278.6C1289.59 303.8 1281.19 321.5 1264.39 331.7C1248.19 341.9 1223.89 347 1191.49 347C1163.29 347 1139.89 341.6 1121.29 330.8C1102.69 320 1093.39 302.6 1093.39 278.6ZM1288.69 736.7C1288.69 772.7 1281.19 797.9 1266.19 812.3C1251.19 826.1 1224.79 833 1186.99 833C1151.59 833 1127.29 824.9 1114.09 808.7C1101.49 791.9 1095.19 764.6 1095.19 726.8V505.4C1095.19 474.8 1103.29 450.2 1119.49 431.6C1136.29 413 1158.49 403.7 1186.09 403.7C1218.49 403.7 1243.69 410.9 1261.69 425.3C1279.69 439.1 1288.69 464.9 1288.69 502.7V736.7ZM1904.01 595.4C1904.01 561.8 1890.51 545 1863.51 545C1851.51 545 1842.51 551.9 1836.51 565.7C1830.51 579.5 1827.51 596.9 1827.51 617.9C1827.51 649.7 1826.91 676.1 1825.71 697.1C1825.11 718.1 1823.31 737 1820.31 753.8C1817.31 770.6 1813.71 783.8 1809.51 793.4C1805.31 803 1799.61 811.1 1792.41 817.7C1785.21 823.7 1777.11 827.9 1768.11 830.3C1759.11 832.1 1747.71 833 1733.91 833C1712.91 833 1695.81 830 1682.61 824C1670.01 818 1661.01 809.6 1655.61 798.8C1650.21 788 1647.51 774.5 1647.51 758.3V595.4C1647.51 561.8 1634.01 545 1607.01 545C1596.21 545 1587.21 551.3 1580.01 563.9C1573.41 575.9 1570.11 591.8 1570.11 611.6V736.7C1570.11 772.7 1562.61 797.9 1547.61 812.3C1532.61 826.1 1506.21 833 1468.41 833C1433.01 833 1408.71 824.9 1395.51 808.7C1382.91 791.9 1376.61 764.6 1376.61 726.8V505.4C1376.61 474.8 1384.71 450.2 1400.91 431.6C1417.71 413 1439.91 403.7 1467.51 403.7C1516.71 403.7 1547.91 419.6 1561.11 451.4C1583.91 434.6 1606.11 422.9 1627.71 416.3C1649.91 409.7 1675.71 406.4 1705.11 406.4C1749.51 406.4 1781.61 425.6 1801.41 464C1804.41 461.6 1807.41 459.2 1810.41 456.8C1856.61 423.2 1913.31 406.4 1980.51 406.4C2023.11 406.4 2053.71 422.6 2072.31 455C2090.91 487.4 2100.21 541.7 2100.21 617.9C2100.21 649.7 2099.61 676.1 2098.41 697.1C2097.81 718.1 2096.01 737 2093.01 753.8C2090.01 770.6 2086.11 783.8 2081.31 793.4C2077.11 803 2070.81 811.1 2062.41 817.7C2054.61 823.7 2045.61 827.9 2035.41 830.3C2025.81 832.1 2013.51 833 1998.51 833C1975.71 833 1957.11 830 1942.71 824C1928.91 818 1919.01 809.6 1913.01 798.8C1907.01 788 1904.01 774.5 1904.01 758.3V595.4ZM2432.55 838.4C2359.35 838.4 2298.75 819.5 2250.75 781.7C2203.35 743.9 2179.65 692.3 2179.65 626.9C2179.65 556.1 2203.05 500.3 2249.85 459.5C2297.25 418.1 2358.15 397.4 2432.55 397.4C2502.75 397.4 2554.05 410 2586.45 435.2C2619.45 459.8 2635.95 493.7 2635.95 536.9C2635.95 545.3 2634.75 553.4 2632.35 561.2C2630.55 569 2627.25 576.8 2622.45 584.6C2618.25 591.8 2612.25 598.7 2604.45 605.3C2597.25 611.3 2588.85 617 2579.25 622.4C2569.65 627.2 2558.25 631.1 2545.05 634.1C2531.85 636.5 2517.75 637.7 2502.75 637.7L2375.85 638.6C2381.85 657.8 2392.65 673.1 2408.25 684.5C2423.85 695.3 2443.65 700.7 2467.65 700.7C2493.45 700.7 2519.85 697.4 2546.85 690.8C2558.25 687.8 2570.55 683 2583.75 676.4C2597.55 669.8 2607.45 666.5 2613.45 666.5C2623.65 666.5 2631.45 669.5 2636.85 675.5C2642.85 681.5 2645.85 689 2645.85 698C2645.85 708.8 2641.05 722 2631.45 737.6C2621.85 752.6 2608.35 767.9 2590.95 783.5C2574.15 798.5 2551.65 811.4 2523.45 822.2C2495.25 833 2464.95 838.4 2432.55 838.4ZM2371.35 581C2412.75 580.4 2435.25 580.1 2438.85 580.1C2447.85 580.1 2454.45 574.7 2458.65 563.9C2461.65 556.1 2463.15 545.3 2463.15 531.5C2463.15 493.7 2451.75 474.8 2428.95 474.8C2420.55 474.8 2412.15 479.3 2403.75 488.3C2395.95 497.3 2389.05 510.2 2383.05 527C2377.05 543.2 2373.15 561.2 2371.35 581ZM3329.61 698C3329.61 746.6 3320.91 781.4 3303.51 802.4C3286.11 822.8 3259.71 833 3224.31 833C3189.51 833 3164.01 823.7 3147.81 805.1C3131.61 785.9 3123.51 752.3 3123.51 704.3L3122.61 602.6H2939.01V698C2939.01 747.2 2930.61 782 2913.81 802.4C2897.01 822.8 2870.31 833 2833.71 833C2798.91 833 2773.41 823.7 2757.21 805.1C2741.01 785.9 2732.91 752.3 2732.91 704.3L2730.21 324.5C2730.21 287.3 2739.51 260 2758.11 242.6C2777.31 225.2 2802.51 216.5 2833.71 216.5C2869.71 216.5 2896.11 223.1 2912.91 236.3C2930.31 249.5 2939.01 276.2 2939.01 316.4V467.6H3121.71V324.5C3121.71 299.3 3126.21 278.6 3135.21 262.4C3144.81 245.6 3156.81 233.9 3171.21 227.3C3186.21 220.1 3203.91 216.5 3224.31 216.5C3259.11 216.5 3285.21 223.1 3302.61 236.3C3320.61 249.5 3329.61 276.2 3329.61 316.4V698ZM3780.75 395.6C3780.75 366.8 3770.25 347 3749.25 336.2C3728.25 325.4 3692.85 320 3643.05 320V475.7C3689.85 475.7 3724.35 470 3746.55 458.6C3769.35 446.6 3780.75 425.6 3780.75 395.6ZM3643.05 698C3643.05 788 3607.95 833 3537.75 833C3502.35 833 3476.25 823.7 3459.45 805.1C3443.25 785.9 3435.15 752.3 3435.15 704.3V324.5C3435.15 289.7 3444.45 263.3 3463.05 245.3C3482.25 226.7 3507.15 217.4 3537.75 217.4H3726.75C3800.55 217.4 3860.25 234.8 3905.85 269.6C3951.45 303.8 3974.25 347.9 3974.25 401.9C3974.25 442.7 3965.55 474.8 3948.15 498.2C3931.35 521 3904.05 537.8 3866.25 548.6C3895.05 550.4 3921.75 564.5 3946.35 590.9C3970.95 616.7 3983.25 649.1 3983.25 688.1C3983.25 727.7 3979.35 758.3 3971.55 779.9C3964.35 800.9 3953.85 815 3940.05 822.2C3926.25 829.4 3906.75 833 3881.55 833C3846.15 833 3820.05 825.8 3803.25 811.4C3787.05 796.4 3778.95 773.9 3778.95 743.9C3778.95 706.7 3775.35 678.2 3768.15 658.4C3760.95 638 3751.65 624.8 3740.25 618.8C3728.85 612.8 3712.95 609.8 3692.55 609.8L3643.05 610.7V698Z" fill="#F27875"/>
</g>
<defs>
<filter id="filter0_i_59_2" x="51.9004" y="210.199" width="3931.35" height="632.199" filterUnits="userSpaceOnUse" color-interpolation-filters="sRGB">
<feFlood flood-opacity="0" result="BackgroundImageFix"/>
<feBlend mode="normal" in="SourceGraphic" in2="BackgroundImageFix" result="shape"/>
<feColorMatrix in="SourceAlpha" type="matrix" values="0 0 0 0 0 0 0 0 0 0 0 0 0 0 0 0 0 0 127 0" result="hardAlpha"/>
<feOffset dx="-3" dy="6"/>
<feGaussianBlur stdDeviation="2"/>
<feComposite in2="hardAlpha" operator="arithmetic" k2="-1" k3="1"/>
<feColorMatrix type="matrix" values="0 0 0 0 0.538462 0 0 0 0 0.204512 0 0 0 0 0.204512 0 0 0 0.71 0"/>
<feBlend mode="normal" in2="shape" result="effect1_innerShadow_59_2"/>
</filter>
</defs>
</svg>
